<svg width="27" height="30" viewBox="0 0 27 30" fill="none" xmlns="http://www.w3.org/2000/svg">
<path d="M22.4962 28.7964C20.7516 30.3795 18.8468 30.1295 17.0132 29.3796C15.0729 28.6131 13.2927 28.5797 11.2455 29.3796C8.68203 30.4128 7.32911 30.1129 5.79816 28.7964C-2.88908 20.4141 -1.60736 7.64903 8.25479 7.18243C10.658 7.29908 12.3314 8.4156 13.7377 8.51559C15.8383 8.11564 17.8499 6.96579 20.0929 7.11577C22.781 7.31574 24.8104 8.31562 26.1455 10.1154C20.5914 13.2317 21.9087 20.0808 27 21.9972C25.9853 24.4969 24.668 26.9799 22.4784 28.813L22.4962 28.7964ZM13.5597 7.08244C13.2927 3.36624 16.5148 0.299962 20.2175 0C20.7338 4.29946 16.0519 7.49905 13.5597 7.08244Z" fill="#212121"/>
</svg>
