<svg width="30" height="30" viewBox="0 0 30 30" fill="none" xmlns="http://www.w3.org/2000/svg">
<path d="M30 15.0917C30 6.75682 23.2842 0 15 0C6.71578 0 0 6.75671 0 15.0917C0 22.6243 5.48531 28.8679 12.6562 30V19.4541H8.84766V15.0917H12.6562V11.7668C12.6562 7.98444 14.8957 5.89518 18.3219 5.89518C19.9631 5.89518 21.6797 6.18994 21.6797 6.18994V9.90391H19.7883C17.9248 9.90391 17.3438 11.0673 17.3438 12.2608V15.0917H21.5039L20.8389 19.4541H17.3438V30C24.5147 28.8679 30 22.6244 30 15.0917Z" fill="#1877F2"/>
<path d="M21.015 19.2324L21.6952 14.8544H17.4401V12.0134C17.4401 10.8155 18.0345 9.64806 19.9404 9.64806H21.875V5.92081C21.875 5.92081 20.1192 5.625 18.4406 5.625C14.9361 5.625 12.6455 7.72172 12.6455 11.5176V14.8544H8.75V19.2324H12.6455V29.816C13.4386 29.9387 14.2401 30.0002 15.0428 30C15.8455 30.0002 16.647 29.9387 17.4401 29.816V19.2324H21.015Z" fill="white"/>
</svg>
