<?xml version="1.0" encoding="utf-8"?>
<!-- Generator: Adobe Illustrator 28.0.0, SVG Export Plug-In . SVG Version: 6.00 Build 0)  -->
<svg version="1.1" id="Camada_1" xmlns="http://www.w3.org/2000/svg" xmlns:xlink="http://www.w3.org/1999/xlink" x="0px" y="0px"
	 viewBox="0 0 300 52" style="enable-background:new 0 0 300 52;" xml:space="preserve">
<style type="text/css">
	.st0{enable-background:new    ;}
	.st1{fill:#0B4995;}
	.st2{fill:#1D93FC;}
	.st3{fill:url(#SVGID_1_);}
	.st4{opacity:0.61;fill:#1D93FC;enable-background:new    ;}
</style>
<g>
	<g class="st0">
		<path class="st1" d="M70.9,12.4H83c8.5,0,14.3,5.1,14.3,13.3S91.5,39,83,39H70.9V12.4z M82.7,33c4.4,0,7.3-2.7,7.3-7.3
			s-2.9-7.3-7.3-7.3h-4.6V33H82.7z"/>
	</g>
	<g class="st0">
		<path class="st1" d="M118.3,31.5h-12.7c0.5,1.9,2,2.9,4.3,2.9c1.7,0,2.8-0.5,4-1.6l3.2,3.5c-1.7,2-4.1,3-7.5,3
			c-6.2,0-10.3-4-10.3-9.5c0-5.5,4.1-9.4,9.6-9.4c5.2,0,9.4,3.4,9.4,9.5C118.4,30.4,118.3,31,118.3,31.5z M105.4,28.1h7.2
			c-0.3-1.9-1.7-3.1-3.6-3.1C107.1,25,105.8,26.2,105.4,28.1z"/>
		<path class="st1" d="M119.8,37.4l1.8-4.4c1.6,1,4,1.7,6.1,1.7c2.1,0,2.7-0.5,2.7-1.2c0-2.5-10.4,0.3-10.4-7c0-3.4,3-6.1,8.5-6.1
			c2.5,0,5.2,0.5,6.9,1.5l-1.8,4.3c-1.7-1-3.5-1.3-5-1.3c-2.1,0-2.8,0.6-2.8,1.3c0,2.5,10.3-0.2,10.3,7c0,3.4-3,6-8.7,6
			C124.6,39.3,121.5,38.5,119.8,37.4z"/>
		<path class="st1" d="M151,38.3c-1.1,0.7-2.7,1-4.3,1c-4.5,0-7.1-2.3-7.1-7v-6.1h-2.6v-4.8h2.6v-4.7h6.1v4.7h4v4.8h-4v6.1
			c0,1.3,0.7,2.1,1.8,2.1c0.7,0,1.4-0.2,1.9-0.6L151,38.3z"/>
		<path class="st1" d="M152.7,15.3c0-1.9,1.5-3.4,3.8-3.4s3.8,1.4,3.8,3.3c0,2-1.5,3.5-3.8,3.5S152.7,17.3,152.7,15.3z M153.4,20.8
			h6.1V39h-6.1V20.8z"/>
		<path class="st1" d="M182.2,28.6V39H176v-9.4c0-2.6-1.1-3.7-2.9-3.7c-2,0-3.5,1.3-3.5,4.3V39h-6.1V20.8h5.9v2
			c1.4-1.5,3.4-2.3,5.6-2.3C179,20.5,182.2,22.9,182.2,28.6z"/>
		<path class="st1" d="M185.2,29.8c0-5.5,4.2-9.4,9.9-9.4c5.8,0,9.9,3.9,9.9,9.4c0,5.5-4.1,9.5-9.9,9.5
			C189.3,39.3,185.2,35.4,185.2,29.8z M198.7,29.8c0-2.8-1.6-4.3-3.7-4.3c-2.1,0-3.7,1.5-3.7,4.3c0,2.8,1.6,4.4,3.7,4.4
			C197.2,34.2,198.7,32.6,198.7,29.8z"/>
	</g>
	<g class="st0">
		<path class="st2" d="M208.2,12.4h7.2V39h-7.2V12.4z"/>
	</g>
	<g class="st0">
		<path class="st2" d="M238.6,14v25h-5.9v-1.8c-1.2,1.4-2.9,2.1-5.1,2.1c-4.8,0-8.6-3.6-8.6-9.5c0-5.8,3.8-9.4,8.6-9.4
			c2,0,3.7,0.6,4.9,1.9V14H238.6z M232.6,29.8c0-2.8-1.6-4.3-3.7-4.3c-2.1,0-3.7,1.5-3.7,4.3c0,2.8,1.6,4.4,3.7,4.4
			C231,34.2,232.6,32.6,232.6,29.8z"/>
		<path class="st2" d="M260.4,31.5h-12.7c0.5,1.9,2,2.9,4.3,2.9c1.7,0,2.8-0.5,4-1.6l3.2,3.5c-1.7,2-4.1,3-7.5,3
			c-6.2,0-10.3-4-10.3-9.5c0-5.5,4.1-9.4,9.6-9.4c5.2,0,9.4,3.4,9.4,9.5C260.5,30.4,260.4,31,260.4,31.5z M247.5,28.1h7.2
			c-0.3-1.9-1.7-3.1-3.6-3.1C249.2,25,247.9,26.2,247.5,28.1z"/>
		<path class="st2" d="M279.3,28.9V39h-5.7v-2.4c-0.9,1.8-2.6,2.7-5.2,2.7c-4.2,0-6.5-2.5-6.5-5.6c0-3.4,2.4-5.5,7.8-5.5h3.5
			c-0.1-1.9-1.3-2.9-3.7-2.9c-1.7,0-3.6,0.6-4.8,1.6l-2.1-4.3c2-1.4,5-2.1,7.7-2.1C276,20.5,279.3,23.1,279.3,28.9z M273.1,33.1
			v-1.6h-2.7c-2,0-2.7,0.7-2.7,1.9c0,1.1,0.8,1.9,2.3,1.9C271.4,35.3,272.6,34.6,273.1,33.1z"/>
		<path class="st2" d="M283.1,14h6.1v25h-6.1V14z"/>
	</g>
	
		<linearGradient id="SVGID_1_" gradientUnits="userSpaceOnUse" x1="15.4611" y1="295.601" x2="46.8813" y2="325.4231" gradientTransform="matrix(1 0 0 -1 0 337.0996)">
		<stop  offset="0" style="stop-color:#021E47"/>
		<stop  offset="0.2358" style="stop-color:#052D62"/>
		<stop  offset="0.5379" style="stop-color:#083C7E"/>
		<stop  offset="0.8029" style="stop-color:#0A468F"/>
		<stop  offset="1" style="stop-color:#0B4995"/>
	</linearGradient>
	<polygon class="st3" points="28.9,11.4 26.3,48.6 68.7,4.8 	"/>
	<polygon class="st4" points="8.7,4.8 35.9,29.2 68.7,4.8 	"/>
</g>
</svg>
